<svg xmlns="http://www.w3.org/2000/svg" xmlns:xlink="http://www.w3.org/1999/xlink" 
version="1.1" x="0px" y="0px" viewBox="0 0 89.961 90.36375" 
style="enable-background:new 0 0 89.961 72.291;" xml:space="preserve">
<g><g><rect x="6.426" y="35.342" width="12.852" height="1.607"/>
<rect x="6.426" y="48.194" width="11.245" height="1.606"/><rect x="6.426" y="25.704" width="14.458" height="1.606"/>
<path d="M57.029,56.227c0.743,0,1.363-0.508,1.546-1.195l0.006,0.002l6.425-24.096l-0.005-0.002    c0.035-0.131,0.06-0.269,0.06-0.412c0-0.888-0.719-1.606-1.605-1.606c-0.744,0-1.363,0.507-1.547,1.194l-0.006-0.002    l-6.426,24.097l0.006,0.002c-0.035,0.132-0.061,0.269-0.061,0.411C55.422,55.507,56.142,56.227,57.029,56.227z"/><rect x="6.426" y="28.917" width="12.852" height="1.606"/><rect x="6.426" y="32.13" width="7.229" height="1.606"/><rect x="6.426" y="22.491" width="11.245" height="1.606"/><rect x="6.426" y="38.556" width="8.032" height="1.606"/><path d="M67.471,50.604c0,0.888,0.719,1.606,1.606,1.606c0.443,0,0.845-0.18,1.136-0.47l8.032-8.033    c0.29-0.291,0.471-0.692,0.471-1.135c0-0.443-0.181-0.846-0.471-1.137l-8.032-8.032c-0.291-0.291-0.692-0.47-1.136-0.47    c-0.888,0-1.606,0.72-1.606,1.606c0,0.443,0.18,0.844,0.471,1.135l6.896,6.897l-6.896,6.896    C67.65,49.759,67.471,50.16,67.471,50.604z"/><rect x="6.426" y="41.768" width="14.458" height="1.607"/><path d="M50.271,51.74c0.291,0.29,0.692,0.47,1.136,0.47c0.888,0,1.606-0.719,1.606-1.606c0-0.443-0.18-0.846-0.47-1.137    l-6.897-6.895l6.897-6.896c0.29-0.291,0.47-0.693,0.47-1.136c0-0.887-0.719-1.606-1.606-1.606c-0.443,0-0.845,0.179-1.136,0.47    l-8.032,8.032c-0.291,0.291-0.471,0.693-0.471,1.137c0,0.442,0.18,0.844,0.471,1.135L50.271,51.74z"/><rect x="6.426" y="19.278" width="14.458" height="1.607"/><rect x="6.426" y="44.981" width="9.639" height="1.606"/><circle cx="17.671" cy="8.033" r="1.606"/><circle cx="8.032" cy="8.033" r="1.606"/><circle cx="12.852" cy="8.033" r="1.606"/><path d="M83.535,0H6.426C2.877,0,0,2.878,0,6.427v59.438c0,3.549,2.877,6.426,6.426,6.426h77.109c3.549,0,6.426-2.877,6.426-6.426    V6.427C89.961,2.878,87.084,0,83.535,0z M24.097,69.078H6.426c-1.774,0-3.212-1.439-3.212-3.213v-49.8h20.883V69.078z     M27.31,69.078V16.065h4.819v53.013H27.31z M86.748,65.865c0,1.773-1.438,3.213-3.213,3.213h-49.8V16.065h53.013V65.865z     M86.748,12.853H3.213V6.427c0-1.774,1.438-3.213,3.212-3.213h77.109c1.774,0,3.213,1.438,3.213,3.213V12.853z"/></g></g></svg>